<mxfile host="app.diagrams.net" modified="2024-01-07T20:02:29.056Z" agent="Mozilla/5.0 (Windows NT 10.0; Win64; x64) AppleWebKit/537.36 (KHTML, like Gecko) Chrome/120.0.0.0 Safari/537.36" etag="DeIgnKD1Ol6Onmi686jv" version="22.1.17" type="device">
  <diagram name="Page-1" id="plMPnYqYeWeYJmXO6-pG">
    <mxGraphModel dx="1195" dy="643" grid="1" gridSize="10" guides="1" tooltips="1" connect="1" arrows="1" fold="1" page="1" pageScale="1" pageWidth="827" pageHeight="1169" math="0" shadow="0">
      <root>
        <mxCell id="0" />
        <mxCell id="1" parent="0" />
        <mxCell id="ze8dPootAyPGJqRhnMk7-1" value="&lt;p style=&quot;margin:0px;margin-top:4px;text-align:center;&quot;&gt;&lt;b&gt;User (TimeFieldMixin, A&lt;/b&gt;&lt;b&gt;bstract&lt;span style=&quot;background-color: initial;&quot;&gt;)&lt;/span&gt;&lt;/b&gt;&lt;/p&gt;&lt;hr size=&quot;1&quot;&gt;&lt;p style=&quot;margin:0px;margin-left:4px;&quot;&gt;id : INTEGER NOT NULL [PK]&lt;br&gt;&lt;/p&gt;&lt;hr size=&quot;1&quot;&gt;&lt;p style=&quot;margin:0px;margin-left:4px;&quot;&gt;first_name : VARCHAR NOT NULL&lt;/p&gt;&lt;p style=&quot;margin:0px;margin-left:4px;&quot;&gt;last_name : VARCHAR NOT NULL&lt;br&gt;&lt;/p&gt;&lt;p style=&quot;margin:0px;margin-left:4px;&quot;&gt;email : VARCHAR NOT NUL UNIQUE&lt;/p&gt;&lt;p style=&quot;margin:0px;margin-left:4px;&quot;&gt;phone : VARCHAR&lt;br&gt;&lt;/p&gt;&lt;p style=&quot;margin:0px;margin-left:4px;&quot;&gt;&lt;br&gt;&lt;/p&gt;&lt;p style=&quot;margin:0px;margin-left:4px;&quot;&gt;&lt;br&gt;&lt;br&gt;&lt;/p&gt;" style="verticalAlign=top;align=left;overflow=fill;fontSize=12;fontFamily=Helvetica;html=1;whiteSpace=wrap;fillColor=#dae8fc;strokeColor=#6c8ebf;" parent="1" vertex="1">
          <mxGeometry x="110.00000000000006" y="150" width="270" height="120" as="geometry" />
        </mxCell>
        <mxCell id="ze8dPootAyPGJqRhnMk7-3" value="&lt;p style=&quot;margin:0px;margin-top:4px;text-align:center;&quot;&gt;&lt;b&gt;Customer (User)&lt;/b&gt;&lt;/p&gt;&lt;hr size=&quot;1&quot;&gt;&lt;p style=&quot;margin:0px;margin-left:4px;&quot;&gt;id : INTEGER NOT NULL [PK]&lt;br&gt;&lt;/p&gt;&lt;p style=&quot;margin:0px;margin-left:4px;&quot;&gt;commercial_id : INTEGER NOT NULL [FK]&lt;span data-darkreader-inline-color=&quot;&quot; data-darkreader-inline-bgcolor=&quot;&quot; style=&quot;background-color: initial; color: rgb(0, 0, 0); --darkreader-inline-bgcolor: initial; --darkreader-inline-color: #181a1b;&quot;&gt;&amp;nbsp;&lt;/span&gt;&lt;/p&gt;&amp;nbsp;company_id : INTEGER NOT NULL [FK]&lt;p style=&quot;margin:0px;margin-left:4px;&quot;&gt;&lt;br&gt;&lt;/p&gt;" style="verticalAlign=top;align=left;overflow=fill;fontSize=12;fontFamily=Helvetica;html=1;whiteSpace=wrap;" parent="1" vertex="1">
          <mxGeometry x="42.5" y="510" width="240" height="90" as="geometry" />
        </mxCell>
        <mxCell id="ze8dPootAyPGJqRhnMk7-6" value="&lt;p style=&quot;margin:0px;margin-top:4px;text-align:center;&quot;&gt;&lt;b&gt;Collaborator (User, AbstracUser)&lt;/b&gt;&lt;/p&gt;&lt;hr size=&quot;1&quot;&gt;&lt;p style=&quot;margin:0px;margin-left:4px;&quot;&gt;id : INTEGER NOT NULL [PK]&lt;br&gt;&lt;/p&gt;&lt;p style=&quot;margin:0px;margin-left:4px;&quot;&gt;department_id : INTEGER NOT NULL [FK]&lt;br&gt;&lt;/p&gt;&lt;hr size=&quot;1&quot;&gt;&lt;p style=&quot;margin:0px;margin-left:4px;&quot;&gt;birthdate : DATE NOT NULL&lt;/p&gt;&lt;p style=&quot;margin:0px;margin-left:4px;&quot;&gt;password : VARCHAR&lt;br&gt;&lt;br&gt;&lt;/p&gt;&lt;p style=&quot;margin:0px;margin-left:4px;&quot;&gt;&lt;br&gt;&lt;/p&gt;&lt;p style=&quot;margin:0px;margin-left:4px;&quot;&gt;&lt;br&gt;&lt;/p&gt;" style="verticalAlign=top;align=left;overflow=fill;fontSize=12;fontFamily=Helvetica;html=1;whiteSpace=wrap;" parent="1" vertex="1">
          <mxGeometry x="330" y="380" width="240" height="110" as="geometry" />
        </mxCell>
        <mxCell id="ze8dPootAyPGJqRhnMk7-18" value="" style="fontSize=12;html=1;endArrow=ERzeroToMany;endFill=1;rounded=0;entryX=0.002;entryY=0.548;entryDx=0;entryDy=0;exitX=0.5;exitY=1;exitDx=0;exitDy=0;edgeStyle=orthogonalEdgeStyle;entryPerimeter=0;" parent="1" source="ze8dPootAyPGJqRhnMk7-3" target="ze8dPootAyPGJqRhnMk7-13" edge="1">
          <mxGeometry width="100" height="100" relative="1" as="geometry">
            <mxPoint x="40" y="585" as="sourcePoint" />
            <mxPoint x="140" y="485" as="targetPoint" />
          </mxGeometry>
        </mxCell>
        <mxCell id="ze8dPootAyPGJqRhnMk7-19" value="&lt;p style=&quot;margin:0px;margin-top:4px;text-align:center;&quot;&gt;&lt;b&gt;Event (TimeFieldMixin)&lt;/b&gt;&lt;/p&gt;&lt;hr size=&quot;1&quot;&gt;&lt;p style=&quot;margin:0px;margin-left:4px;&quot;&gt;id : INTEGER NOT NULL [PK]&lt;/p&gt;&lt;p style=&quot;border-color: var(--darkreader-border--border-color); margin: 0px 0px 0px 4px; --darkreader-inline-border: var(--darkreader-border--darkreader-border--border-color);&quot; data-darkreader-inline-border=&quot;&quot;&gt;contract_id : INTEGER NOT NULL [FK]&lt;/p&gt;&lt;p style=&quot;border-color: var(--darkreader-border--border-color); margin: 0px 0px 0px 4px; --darkreader-inline-border: var(--darkreader-border--darkreader-border--border-color);&quot; data-darkreader-inline-border=&quot;&quot;&gt;location_id: INTEGER NOT NULL [FK]&lt;/p&gt;&lt;p style=&quot;border-color: var(--darkreader-border--border-color); margin: 0px 0px 0px 4px; --darkreader-inline-border: var(--darkreader-border--darkreader-border--border-color);&quot; data-darkreader-inline-border=&quot;&quot;&gt;support_id : INTEGER [FK]&lt;/p&gt;&lt;hr size=&quot;1&quot;&gt;&lt;p data-darkreader-inline-border=&quot;&quot; style=&quot;border-color: var(--darkreader-border--border-color); margin: 0px 0px 0px 4px; --darkreader-inline-border: var(--darkreader-border--darkreader-border--border-color);&quot;&gt;&lt;span data-darkreader-inline-color=&quot;&quot; data-darkreader-inline-bgcolor=&quot;&quot; style=&quot;background-color: initial; color: rgb(0, 0, 0); --darkreader-inline-bgcolor: initial; --darkreader-inline-color: #181a1b;&quot;&gt;start_date : DATETIME&lt;/span&gt;&lt;/p&gt;&lt;p data-darkreader-inline-border=&quot;&quot; style=&quot;border-color: var(--darkreader-border--border-color); margin: 0px 0px 0px 4px; --darkreader-inline-border: var(--darkreader-border--darkreader-border--border-color);&quot;&gt;&lt;span data-darkreader-inline-color=&quot;&quot; data-darkreader-inline-bgcolor=&quot;&quot; style=&quot;background-color: initial; color: rgb(0, 0, 0); --darkreader-inline-bgcolor: initial; --darkreader-inline-color: #181a1b;&quot;&gt;end_date : DATETIME&lt;br&gt;&lt;/span&gt;&lt;/p&gt;&lt;p data-darkreader-inline-border=&quot;&quot; style=&quot;border-color: var(--darkreader-border--border-color); margin: 0px 0px 0px 4px; --darkreader-inline-border: var(--darkreader-border--darkreader-border--border-color);&quot;&gt;&lt;span data-darkreader-inline-color=&quot;&quot; data-darkreader-inline-bgcolor=&quot;&quot; style=&quot;background-color: initial; color: rgb(0, 0, 0); --darkreader-inline-bgcolor: initial; --darkreader-inline-color: #181a1b;&quot;&gt;attendees : INTEGER&lt;/span&gt;&lt;/p&gt;&lt;p data-darkreader-inline-border=&quot;&quot; style=&quot;border-color: var(--darkreader-border--border-color); margin: 0px 0px 0px 4px; --darkreader-inline-border: var(--darkreader-border--darkreader-border--border-color);&quot;&gt;&lt;span data-darkreader-inline-color=&quot;&quot; data-darkreader-inline-bgcolor=&quot;&quot; style=&quot;background-color: initial; color: rgb(0, 0, 0); --darkreader-inline-bgcolor: initial; --darkreader-inline-color: #181a1b;&quot;&gt;note : TEXT&lt;/span&gt;&lt;span style=&quot;background-color: initial;&quot;&gt;&amp;nbsp;&lt;/span&gt;&lt;/p&gt;&lt;p data-darkreader-inline-border=&quot;&quot; style=&quot;border-color: var(--darkreader-border--border-color); margin: 0px 0px 0px 4px; --darkreader-inline-border: var(--darkreader-border--darkreader-border--border-color);&quot;&gt;&lt;br data-darkreader-inline-border=&quot;&quot; style=&quot;border-color: var(--darkreader-border--border-color); --darkreader-inline-border: var(--darkreader-border--darkreader-border--border-color);&quot;&gt;&lt;/p&gt;&lt;p data-darkreader-inline-border=&quot;&quot; style=&quot;border-color: var(--darkreader-border--border-color); margin: 0px 0px 0px 4px; --darkreader-inline-border: var(--darkreader-border--darkreader-border--border-color);&quot;&gt;&lt;br data-darkreader-inline-border=&quot;&quot; style=&quot;border-color: var(--darkreader-border--border-color); --darkreader-inline-border: var(--darkreader-border--darkreader-border--border-color);&quot;&gt;&lt;/p&gt;&lt;p style=&quot;margin:0px;margin-left:4px;&quot;&gt;&lt;br&gt;&lt;br&gt;&lt;/p&gt;" style="verticalAlign=top;align=left;overflow=fill;fontSize=12;fontFamily=Helvetica;html=1;whiteSpace=wrap;" parent="1" vertex="1">
          <mxGeometry x="350" y="980" width="245.37" height="180" as="geometry" />
        </mxCell>
        <mxCell id="ze8dPootAyPGJqRhnMk7-23" value="Managers create and update customers contracts&lt;br&gt;&lt;br&gt;Commercials update their contracts" style="text;html=1;strokeColor=none;fillColor=none;align=center;verticalAlign=middle;whiteSpace=wrap;rounded=0;" parent="1" vertex="1">
          <mxGeometry x="343.75" y="570" width="197.5" height="60" as="geometry" />
        </mxCell>
        <mxCell id="ze8dPootAyPGJqRhnMk7-24" value="If the contract is signed : commercial creates the event&lt;br&gt;&lt;br&gt;Then managers assign a support&lt;br&gt;&lt;br&gt;Supports update their events&amp;nbsp;" style="text;html=1;strokeColor=none;fillColor=none;align=center;verticalAlign=middle;whiteSpace=wrap;rounded=0;" parent="1" vertex="1">
          <mxGeometry x="367.69" y="870" width="210" height="100" as="geometry" />
        </mxCell>
        <mxCell id="ze8dPootAyPGJqRhnMk7-25" value="" style="fontSize=12;html=1;endArrow=ERzeroToMany;endFill=1;rounded=0;entryX=1;entryY=0.5;entryDx=0;entryDy=0;exitX=0;exitY=0.5;exitDx=0;exitDy=0;edgeStyle=orthogonalEdgeStyle;" parent="1" source="ze8dPootAyPGJqRhnMk7-6" target="ze8dPootAyPGJqRhnMk7-3" edge="1">
          <mxGeometry width="100" height="100" relative="1" as="geometry">
            <mxPoint x="410" y="259.9999999999999" as="sourcePoint" />
            <mxPoint x="810" y="120" as="targetPoint" />
          </mxGeometry>
        </mxCell>
        <mxCell id="ze8dPootAyPGJqRhnMk7-29" value="" style="fontSize=12;html=1;endArrow=ERzeroToMany;endFill=1;rounded=0;exitX=1;exitY=1;exitDx=0;exitDy=0;edgeStyle=orthogonalEdgeStyle;entryX=1;entryY=0.5;entryDx=0;entryDy=0;" parent="1" source="ze8dPootAyPGJqRhnMk7-6" target="ze8dPootAyPGJqRhnMk7-19" edge="1">
          <mxGeometry width="100" height="100" relative="1" as="geometry">
            <mxPoint x="670" y="500" as="sourcePoint" />
            <mxPoint x="610" y="1110" as="targetPoint" />
            <Array as="points">
              <mxPoint x="570" y="530" />
              <mxPoint x="670" y="530" />
              <mxPoint x="670" y="1070" />
            </Array>
          </mxGeometry>
        </mxCell>
        <mxCell id="ze8dPootAyPGJqRhnMk7-31" value="&lt;p style=&quot;margin:0px;margin-top:4px;text-align:center;&quot;&gt;&lt;b&gt;Company (NameFieldMixin)&lt;/b&gt;&lt;/p&gt;&lt;hr size=&quot;1&quot;&gt;&lt;p style=&quot;margin:0px;margin-left:4px;&quot;&gt;id : INTEGER NOT NULL [PK]&lt;/p&gt;&lt;p style=&quot;margin:0px;margin-left:4px;&quot;&gt;&lt;br&gt;&lt;/p&gt;&lt;hr size=&quot;1&quot;&gt;&lt;p data-darkreader-inline-border=&quot;&quot; style=&quot;border-color: var(--darkreader-border--border-color); margin: 0px 0px 0px 4px; --darkreader-inline-border: var(--darkreader-border--darkreader-border--border-color);&quot;&gt;&lt;br&gt;&lt;/p&gt;" style="verticalAlign=top;align=left;overflow=fill;fontSize=12;fontFamily=Helvetica;html=1;whiteSpace=wrap;" parent="1" vertex="1">
          <mxGeometry x="10" y="790" width="220" height="70" as="geometry" />
        </mxCell>
        <mxCell id="ze8dPootAyPGJqRhnMk7-32" value="" style="fontSize=12;html=1;endArrow=ERzeroToMany;endFill=1;rounded=0;entryX=0;entryY=0.5;entryDx=0;entryDy=0;exitX=0;exitY=0;exitDx=0;exitDy=0;edgeStyle=orthogonalEdgeStyle;" parent="1" source="ze8dPootAyPGJqRhnMk7-31" target="ze8dPootAyPGJqRhnMk7-3" edge="1">
          <mxGeometry width="100" height="100" relative="1" as="geometry">
            <mxPoint x="180" y="530" as="sourcePoint" />
            <mxPoint x="70" y="700" as="targetPoint" />
          </mxGeometry>
        </mxCell>
        <mxCell id="ze8dPootAyPGJqRhnMk7-50" value="" style="fontSize=12;html=1;endArrow=ERzeroToMany;endFill=1;rounded=0;entryX=0;entryY=0;entryDx=0;entryDy=0;exitX=0.5;exitY=1;exitDx=0;exitDy=0;edgeStyle=orthogonalEdgeStyle;" parent="1" source="ze8dPootAyPGJqRhnMk7-45" target="ze8dPootAyPGJqRhnMk7-19" edge="1">
          <mxGeometry width="100" height="100" relative="1" as="geometry">
            <mxPoint x="99.47999999999999" y="670" as="sourcePoint" />
            <mxPoint x="149.48" y="838" as="targetPoint" />
            <Array as="points">
              <mxPoint x="450" y="860" />
              <mxPoint x="350" y="860" />
            </Array>
          </mxGeometry>
        </mxCell>
        <mxCell id="ze8dPootAyPGJqRhnMk7-51" value="" style="fontSize=12;html=1;endArrow=ERzeroToMany;endFill=1;rounded=0;entryX=0;entryY=0.25;entryDx=0;entryDy=0;exitX=1;exitY=0.5;exitDx=0;exitDy=0;edgeStyle=orthogonalEdgeStyle;" parent="1" source="ze8dPootAyPGJqRhnMk7-53" target="ze8dPootAyPGJqRhnMk7-19" edge="1">
          <mxGeometry width="100" height="100" relative="1" as="geometry">
            <mxPoint x="380" y="1170.5" as="sourcePoint" />
            <mxPoint x="494.6300000000001" y="1160" as="targetPoint" />
          </mxGeometry>
        </mxCell>
        <mxCell id="ze8dPootAyPGJqRhnMk7-52" value="" style="group;strokeColor=#ff0800;fillColor=#8e251f;" parent="1" vertex="1" connectable="0">
          <mxGeometry x="330" y="640" width="240" height="190" as="geometry" />
        </mxCell>
        <mxCell id="ze8dPootAyPGJqRhnMk7-13" value="&lt;p style=&quot;margin:0px;margin-top:4px;text-align:center;&quot;&gt;&lt;b&gt;Contract (TimeFieldMixin)&amp;nbsp;&lt;/b&gt;&lt;/p&gt;&lt;hr size=&quot;1&quot;&gt;&lt;p style=&quot;margin:0px;margin-left:4px;&quot;&gt;id : INTEGER NOT NULL [PK]&lt;/p&gt;&lt;p style=&quot;border-color: var(--darkreader-border--border-color); margin: 0px 0px 0px 4px; --darkreader-inline-border: var(--darkreader-border--darkreader-border--border-color);&quot; data-darkreader-inline-border=&quot;&quot;&gt;&lt;span style=&quot;background-color: initial;&quot;&gt;customer_id : INTEGER NOT NULL [FK]&lt;/span&gt;&lt;br&gt;&lt;/p&gt;&lt;hr size=&quot;1&quot;&gt;&lt;p data-darkreader-inline-border=&quot;&quot; style=&quot;border-color: var(--darkreader-border--border-color); margin: 0px 0px 0px 4px; --darkreader-inline-border: var(--darkreader-border--darkreader-border--border-color);&quot;&gt;&lt;span data-darkreader-inline-bgcolor=&quot;&quot; style=&quot;background-color: initial; --darkreader-inline-bgcolor: initial;&quot;&gt;total_amount : FLOAT&lt;/span&gt;&lt;/p&gt;&lt;p data-darkreader-inline-border=&quot;&quot; style=&quot;border-color: var(--darkreader-border--border-color); margin: 0px 0px 0px 4px; --darkreader-inline-border: var(--darkreader-border--darkreader-border--border-color);&quot;&gt;&lt;span data-darkreader-inline-bgcolor=&quot;&quot; style=&quot;background-color: initial; --darkreader-inline-bgcolor: initial;&quot;&gt;amount_paid : FLOAT&amp;nbsp;&lt;/span&gt;&lt;/p&gt;&lt;p data-darkreader-inline-border=&quot;&quot; style=&quot;border-color: var(--darkreader-border--border-color); margin: 0px 0px 0px 4px; --darkreader-inline-border: var(--darkreader-border--darkreader-border--border-color);&quot;&gt;&lt;span data-darkreader-inline-color=&quot;&quot; data-darkreader-inline-bgcolor=&quot;&quot; style=&quot;background-color: initial; color: rgb(0, 0, 0); --darkreader-inline-bgcolor: initial; --darkreader-inline-color: #181a1b;&quot;&gt;is_signed : BOOLEAN DEFAULT=FALSE&lt;/span&gt;&lt;/p&gt;&lt;p style=&quot;margin:0px;margin-left:4px;&quot;&gt;&lt;br&gt;&lt;/p&gt;" style="verticalAlign=top;align=left;overflow=fill;fontSize=12;fontFamily=Helvetica;html=1;whiteSpace=wrap;" parent="ze8dPootAyPGJqRhnMk7-52" vertex="1">
          <mxGeometry width="240" height="150" as="geometry" />
        </mxCell>
        <mxCell id="ze8dPootAyPGJqRhnMk7-45" value="&lt;p style=&quot;margin:0px;margin-top:4px;text-align:center;&quot;&gt;&lt;b&gt;Methods&lt;/b&gt;&lt;/p&gt;&lt;hr size=&quot;1&quot;&gt;&lt;p style=&quot;margin:0px;margin-left:4px;&quot;&gt;remaining_amout() = amount - paid&lt;br&gt;&lt;/p&gt;" style="verticalAlign=top;align=left;overflow=fill;fontSize=12;fontFamily=Helvetica;html=1;whiteSpace=wrap;" parent="ze8dPootAyPGJqRhnMk7-52" vertex="1">
          <mxGeometry y="144.76190476190476" width="240" height="45.23809523809524" as="geometry" />
        </mxCell>
        <mxCell id="ze8dPootAyPGJqRhnMk7-53" value="&lt;p style=&quot;margin:0px;margin-top:4px;text-align:center;&quot;&gt;&lt;b&gt;Location (TimeFieldMixin)&lt;/b&gt;&lt;/p&gt;&lt;hr size=&quot;1&quot;&gt;&lt;p style=&quot;margin:0px;margin-left:4px;&quot;&gt;id : INTEGER NOT NULL [PK]&lt;/p&gt;&lt;hr size=&quot;1&quot;&gt;&lt;p data-darkreader-inline-border=&quot;&quot; style=&quot;border-color: var(--darkreader-border--border-color); margin: 0px 0px 0px 4px; --darkreader-inline-border: var(--darkreader-border--darkreader-border--border-color);&quot;&gt;&lt;span data-darkreader-inline-color=&quot;&quot; data-darkreader-inline-bgcolor=&quot;&quot; style=&quot;background-color: initial; color: rgb(0, 0, 0); --darkreader-inline-bgcolor: initial; --darkreader-inline-color: #181a1b;&quot;&gt;name : VARCHAR&lt;/span&gt;&lt;br&gt;&lt;/p&gt;&lt;p data-darkreader-inline-border=&quot;&quot; style=&quot;border-color: var(--darkreader-border--border-color); margin: 0px 0px 0px 4px; --darkreader-inline-border: var(--darkreader-border--darkreader-border--border-color);&quot;&gt;&lt;span data-darkreader-inline-color=&quot;&quot; data-darkreader-inline-bgcolor=&quot;&quot; style=&quot;background-color: initial; color: rgb(0, 0, 0); --darkreader-inline-bgcolor: initial; --darkreader-inline-color: #181a1b;&quot;&gt;number : VARCHAR&lt;/span&gt;&lt;/p&gt;&lt;p data-darkreader-inline-border=&quot;&quot; style=&quot;border-color: var(--darkreader-border--border-color); margin: 0px 0px 0px 4px; --darkreader-inline-border: var(--darkreader-border--darkreader-border--border-color);&quot;&gt;&lt;span data-darkreader-inline-color=&quot;&quot; data-darkreader-inline-bgcolor=&quot;&quot; style=&quot;background-color: initial; color: rgb(0, 0, 0); --darkreader-inline-bgcolor: initial; --darkreader-inline-color: #181a1b;&quot;&gt;street_type : VARCHAR&lt;br&gt;&lt;/span&gt;&lt;/p&gt;&lt;p data-darkreader-inline-border=&quot;&quot; style=&quot;border-color: var(--darkreader-border--border-color); margin: 0px 0px 0px 4px; --darkreader-inline-border: var(--darkreader-border--darkreader-border--border-color);&quot;&gt;&lt;span data-darkreader-inline-color=&quot;&quot; data-darkreader-inline-bgcolor=&quot;&quot; style=&quot;background-color: initial; color: rgb(0, 0, 0); --darkreader-inline-bgcolor: initial; --darkreader-inline-color: #181a1b;&quot;&gt;street_name : VARCHAR&lt;br&gt;&lt;/span&gt;&lt;/p&gt;&lt;p data-darkreader-inline-border=&quot;&quot; style=&quot;border-color: var(--darkreader-border--border-color); margin: 0px 0px 0px 4px; --darkreader-inline-border: var(--darkreader-border--darkreader-border--border-color);&quot;&gt;cty : VARCHAR NOT NULL&lt;/p&gt;&lt;p data-darkreader-inline-border=&quot;&quot; style=&quot;border-color: var(--darkreader-border--border-color); margin: 0px 0px 0px 4px; --darkreader-inline-border: var(--darkreader-border--darkreader-border--border-color);&quot;&gt;zip :&amp;nbsp;VARCHAR&amp;nbsp;&lt;span style=&quot;background-color: initial;&quot;&gt;NOT NULL&lt;/span&gt;&lt;br&gt;&lt;/p&gt;&lt;p data-darkreader-inline-border=&quot;&quot; style=&quot;border-color: var(--darkreader-border--border-color); margin: 0px 0px 0px 4px; --darkreader-inline-border: var(--darkreader-border--darkreader-border--border-color);&quot;&gt;&lt;br&gt;&lt;/p&gt;&lt;p data-darkreader-inline-border=&quot;&quot; style=&quot;border-color: var(--darkreader-border--border-color); margin: 0px 0px 0px 4px; --darkreader-inline-border: var(--darkreader-border--darkreader-border--border-color);&quot;&gt;&lt;br data-darkreader-inline-border=&quot;&quot; style=&quot;border-color: var(--darkreader-border--border-color); --darkreader-inline-border: var(--darkreader-border--darkreader-border--border-color);&quot;&gt;&lt;/p&gt;&lt;p style=&quot;margin:0px;margin-left:4px;&quot;&gt;&lt;br&gt;&lt;br&gt;&lt;/p&gt;" style="verticalAlign=top;align=left;overflow=fill;fontSize=12;fontFamily=Helvetica;html=1;whiteSpace=wrap;" parent="1" vertex="1">
          <mxGeometry x="20" y="990" width="240" height="150" as="geometry" />
        </mxCell>
        <mxCell id="ze8dPootAyPGJqRhnMk7-60" value="Commercials create and update customers companies" style="text;html=1;strokeColor=none;fillColor=none;align=center;verticalAlign=middle;whiteSpace=wrap;rounded=0;" parent="1" vertex="1">
          <mxGeometry x="36.16" y="750" width="167.68" height="30" as="geometry" />
        </mxCell>
        <mxCell id="ze8dPootAyPGJqRhnMk7-61" value="Commercials create and update locations" style="text;html=1;strokeColor=none;fillColor=none;align=center;verticalAlign=middle;whiteSpace=wrap;rounded=0;" parent="1" vertex="1">
          <mxGeometry x="42.5" y="950" width="175" height="30" as="geometry" />
        </mxCell>
        <mxCell id="vRoCtObwlidcR9JG_tyj-2" value="&lt;p style=&quot;margin:0px;margin-top:4px;text-align:center;&quot;&gt;&lt;b&gt;TimeFieldMixin (Abstract&lt;span style=&quot;background-color: initial;&quot;&gt;)&lt;/span&gt;&lt;/b&gt;&lt;/p&gt;&lt;hr size=&quot;1&quot;&gt;&lt;p style=&quot;margin:0px;margin-left:4px;&quot;&gt;id : INTEGER NOT NULL [PK]&lt;br&gt;&lt;/p&gt;&lt;hr size=&quot;1&quot;&gt;&lt;p style=&quot;margin:0px;margin-left:4px;&quot;&gt;slug : VARCHAR&lt;/p&gt;&lt;p style=&quot;margin:0px;margin-left:4px;&quot;&gt;creation_time: DATETIME&lt;br&gt;&lt;/p&gt;&lt;p style=&quot;margin:0px;margin-left:4px;&quot;&gt;edition_time: DATETIME&lt;br&gt;&lt;/p&gt;&lt;p style=&quot;margin:0px;margin-left:4px;&quot;&gt;&lt;br&gt;&lt;/p&gt;&lt;p style=&quot;margin:0px;margin-left:4px;&quot;&gt;&lt;br&gt;&lt;/p&gt;&lt;p style=&quot;margin:0px;margin-left:4px;&quot;&gt;&lt;br&gt;&lt;br&gt;&lt;/p&gt;" style="verticalAlign=top;align=left;overflow=fill;fontSize=12;fontFamily=Helvetica;html=1;whiteSpace=wrap;fillColor=#dae8fc;strokeColor=#6c8ebf;" vertex="1" parent="1">
          <mxGeometry x="375.37" y="10" width="220" height="110" as="geometry" />
        </mxCell>
        <mxCell id="vRoCtObwlidcR9JG_tyj-3" value="&lt;p style=&quot;margin:0px;margin-top:4px;text-align:center;&quot;&gt;&lt;b&gt;NameFieldMixin (TimeFieldMixin, Abstract&lt;span style=&quot;background-color: initial;&quot;&gt;)&lt;/span&gt;&lt;/b&gt;&lt;/p&gt;&lt;hr size=&quot;1&quot;&gt;&lt;p style=&quot;margin:0px;margin-left:4px;&quot;&gt;id : INTEGER NOT NULL [PK]&lt;br&gt;&lt;/p&gt;&lt;hr size=&quot;1&quot;&gt;&lt;p style=&quot;margin:0px;margin-left:4px;&quot;&gt;name: VARCHAR NOT NULL&lt;/p&gt;&lt;p style=&quot;margin:0px;margin-left:4px;&quot;&gt;&lt;br&gt;&lt;/p&gt;&lt;p style=&quot;margin:0px;margin-left:4px;&quot;&gt;&lt;br&gt;&lt;/p&gt;&lt;p style=&quot;margin:0px;margin-left:4px;&quot;&gt;&lt;br&gt;&lt;/p&gt;&lt;p style=&quot;margin:0px;margin-left:4px;&quot;&gt;&lt;br&gt;&lt;br&gt;&lt;/p&gt;" style="verticalAlign=top;align=left;overflow=fill;fontSize=12;fontFamily=Helvetica;html=1;whiteSpace=wrap;fillColor=#dae8fc;strokeColor=#6c8ebf;" vertex="1" parent="1">
          <mxGeometry x="550" y="170" width="270" height="80" as="geometry" />
        </mxCell>
        <mxCell id="vRoCtObwlidcR9JG_tyj-5" value="Commercials create and update customers&amp;nbsp;" style="text;html=1;strokeColor=none;fillColor=none;align=center;verticalAlign=middle;whiteSpace=wrap;rounded=0;" vertex="1" parent="1">
          <mxGeometry x="62.31999999999999" y="470" width="167.68" height="30" as="geometry" />
        </mxCell>
        <mxCell id="vRoCtObwlidcR9JG_tyj-6" value="&lt;p style=&quot;margin:0px;margin-top:4px;text-align:center;&quot;&gt;&lt;b&gt;Department (NameFieldMixin)&lt;/b&gt;&lt;/p&gt;&lt;hr size=&quot;1&quot;&gt;&lt;p style=&quot;margin:0px;margin-left:4px;&quot;&gt;id : INTEGER NOT NULL [PK]&lt;/p&gt;&lt;p style=&quot;margin:0px;margin-left:4px;&quot;&gt;&lt;br&gt;&lt;/p&gt;&lt;hr size=&quot;1&quot;&gt;&lt;p data-darkreader-inline-border=&quot;&quot; style=&quot;border-color: var(--darkreader-border--border-color); margin: 0px 0px 0px 4px; --darkreader-inline-border: var(--darkreader-border--darkreader-border--border-color);&quot;&gt;&lt;br&gt;&lt;/p&gt;" style="verticalAlign=top;align=left;overflow=fill;fontSize=12;fontFamily=Helvetica;html=1;whiteSpace=wrap;" vertex="1" parent="1">
          <mxGeometry x="607" y="400" width="220" height="70" as="geometry" />
        </mxCell>
        <mxCell id="vRoCtObwlidcR9JG_tyj-10" value="Managers create and update collaborators" style="text;html=1;strokeColor=none;fillColor=none;align=center;verticalAlign=middle;whiteSpace=wrap;rounded=0;" vertex="1" parent="1">
          <mxGeometry x="355" y="350" width="175" height="30" as="geometry" />
        </mxCell>
        <mxCell id="vRoCtObwlidcR9JG_tyj-11" value="Managers create and update departments&lt;br&gt;(&quot;Gestion&quot;, &quot;Support&quot;, &quot;Commercial&quot;)" style="text;html=1;strokeColor=none;fillColor=none;align=center;verticalAlign=middle;whiteSpace=wrap;rounded=0;" vertex="1" parent="1">
          <mxGeometry x="610" y="335" width="210" height="60" as="geometry" />
        </mxCell>
        <mxCell id="vRoCtObwlidcR9JG_tyj-14" value="" style="fontSize=12;html=1;endArrow=ERzeroToMany;endFill=1;rounded=0;entryX=1;entryY=0.5;entryDx=0;entryDy=0;exitX=0;exitY=0.5;exitDx=0;exitDy=0;" edge="1" parent="1" source="vRoCtObwlidcR9JG_tyj-6" target="ze8dPootAyPGJqRhnMk7-6">
          <mxGeometry width="100" height="100" relative="1" as="geometry">
            <mxPoint x="670" y="500" as="sourcePoint" />
            <mxPoint x="630" y="620" as="targetPoint" />
          </mxGeometry>
        </mxCell>
        <mxCell id="vRoCtObwlidcR9JG_tyj-16" value="" style="fontSize=12;html=1;endArrow=ERzeroToMany;endFill=1;rounded=0;entryX=1;entryY=0.25;entryDx=0;entryDy=0;edgeStyle=orthogonalEdgeStyle;exitX=0.75;exitY=1;exitDx=0;exitDy=0;" edge="1" parent="1" source="ze8dPootAyPGJqRhnMk7-6" target="ze8dPootAyPGJqRhnMk7-13">
          <mxGeometry width="100" height="100" relative="1" as="geometry">
            <mxPoint x="610" y="510" as="sourcePoint" />
            <mxPoint x="620" y="890" as="targetPoint" />
            <Array as="points">
              <mxPoint x="503" y="560" />
              <mxPoint x="600" y="560" />
              <mxPoint x="600" y="678" />
            </Array>
          </mxGeometry>
        </mxCell>
      </root>
    </mxGraphModel>
  </diagram>
</mxfile>
